HIERARCHY
ROOT hip
{
  OFFSET 0 90.174 2.4664
  CHANNELS 6 Xposition Yposition Zposition Zrotation Xrotation Yrotation
  JOINT abdomen
  {
    OFFSET 0 -1.186 -1.5018
    CHANNELS 6 Xposition Yposition Zposition Zrotation Xrotation Yrotation
    JOINT abdomen2
    {
      OFFSET 0 9.964 0.2134
      CHANNELS 6 Xposition Yposition Zposition Zrotation Xrotation Yrotation
      JOINT chest
      {
        OFFSET 0 13.134 -3.2573
        CHANNELS 6 Xposition Yposition Zposition Zrotation Xrotation Yrotation
        JOINT neck
        {
          OFFSET 0 20.686 -1.6905
          CHANNELS 6 Xposition Yposition Zposition Zrotation Xrotation Yrotation
          JOINT head
          {
            OFFSET 0 7.238 -0.1237
            CHANNELS 6 Xposition Yposition Zposition Zrotation Xrotation Yrotation
            End Site
            {
              OFFSET 0 0 0
            }
          }
        }
        JOINT lCollar
        {
          OFFSET 1.7069 20.075 5.0056
          CHANNELS 6 Xposition Yposition Zposition Zrotation Xrotation Yrotation
          JOINT lShldr
          {
            OFFSET 13.6458 -0.047 -4.849
            CHANNELS 6 Xposition Yposition Zposition Zrotation Xrotation Yrotation
            JOINT lForeArm
            {
              OFFSET 28.3255 -0.9759 2.2888
              CHANNELS 6 Xposition Yposition Zposition Zrotation Xrotation Yrotation
              JOINT lHand
              {
                OFFSET 22.1583 -0.53 10.8316
                CHANNELS 6 Xposition Yposition Zposition Zrotation Xrotation Yrotation
                JOINT lThumb1
                {
                  OFFSET 0.786 0.112 2.5817
                  CHANNELS 6 Xposition Yposition Zposition Zrotation Xrotation Yrotation
                  JOINT lThumb2
                  {
                    OFFSET 0.3601 -0.878 4.2331
                    CHANNELS 6 Xposition Yposition Zposition Zrotation Xrotation Yrotation
                    JOINT lThumb2_End
                    {
                      OFFSET 1.8127 -1.216 2.2227
                      CHANNELS 6 Xposition Yposition Zposition Zrotation Xrotation Yrotation
                      End Site
                      {
                        OFFSET 0.0181 -0.0122 0.0222
                      }
                    }
                  }
                }
                JOINT lCarpal1
                {
                  OFFSET 0.9571 1.114 1.7695
                  CHANNELS 6 Xposition Yposition Zposition Zrotation Xrotation Yrotation
                  JOINT lIndex1
                  {
                    OFFSET 4.1246 0.487 4.1451
                    CHANNELS 6 Xposition Yposition Zposition Zrotation Xrotation Yrotation
                    JOINT lIndex2
                    {
                      OFFSET 3.4052 -1.454 2.7682
                      CHANNELS 6 Xposition Yposition Zposition Zrotation Xrotation Yrotation
                      JOINT lIndex2_End
                      {
                        OFFSET 1.4531 -1.795 1.2713
                        CHANNELS 6 Xposition Yposition Zposition Zrotation Xrotation Yrotation
                        End Site
                        {
                          OFFSET 0.0145 -0.0179 0.0127
                        }
                      }
                    }
                  }
                  JOINT lMid1
                  {
                    OFFSET 5.6954 0.21 2.1184
                    CHANNELS 6 Xposition Yposition Zposition Zrotation Xrotation Yrotation
                    JOINT lMid2
                    {
                      OFFSET 3.9766 -1.54 2.3863
                      CHANNELS 6 Xposition Yposition Zposition Zrotation Xrotation Yrotation
                      JOINT lMid2_End
                      {
                        OFFSET 1.4042 -1.926 1.125
                        CHANNELS 6 Xposition Yposition Zposition Zrotation Xrotation Yrotation
                        End Site
                        {
                          OFFSET 0.014 -0.0193 0.0113
                        }
                      }
                    }
                  }
                }
                JOINT lCarpal2
                {
                  OFFSET 2.0956 0.66 -0.3894
                  CHANNELS 6 Xposition Yposition Zposition Zrotation Xrotation Yrotation
                  JOINT lRing1
                  {
                    OFFSET 5.0395 -0.09 2.4971
                    CHANNELS 6 Xposition Yposition Zposition Zrotation Xrotation Yrotation
                    JOINT lRing2
                    {
                      OFFSET 3.7921 -1.552 1.4806
                      CHANNELS 6 Xposition Yposition Zposition Zrotation Xrotation Yrotation
                      JOINT lRing2_End
                      {
                        OFFSET 1.4655 -1.808 0.9609
                        CHANNELS 6 Xposition Yposition Zposition Zrotation Xrotation Yrotation
                        End Site
                        {
                          OFFSET 0.0147 -0.0181 0.0096
                        }
                      }
                    }
                  }
                  JOINT lPinky1
                  {
                    OFFSET 4.9141 -1.269 0.3591
                    CHANNELS 6 Xposition Yposition Zposition Zrotation Xrotation Yrotation
                    JOINT lPinky2
                    {
                      OFFSET 3.1477 -1.685 0.8462
                      CHANNELS 6 Xposition Yposition Zposition Zrotation Xrotation Yrotation
                      JOINT lPinky2_End
                      {
                        OFFSET 0.8055 -1.585 0.7955
                        CHANNELS 6 Xposition Yposition Zposition Zrotation Xrotation Yrotation
                        End Site
                        {
                          OFFSET 0.0081 -0.0158 0.008
                        }
                      }
                    }
                  }
                }
              }
            }
          }
        }
        JOINT rCollar
        {
          OFFSET -1.7069 20.075 5.0056
          CHANNELS 6 Xposition Yposition Zposition Zrotation Xrotation Yrotation
          JOINT rShldr
          {
            OFFSET -13.6458 -0.047 -4.849
            CHANNELS 6 Xposition Yposition Zposition Zrotation Xrotation Yrotation
            JOINT rForeArm
            {
              OFFSET -28.3255 -0.9759 2.2888
              CHANNELS 6 Xposition Yposition Zposition Zrotation Xrotation Yrotation
              JOINT rHand
              {
                OFFSET -22.1583 -0.53 10.8316
                CHANNELS 6 Xposition Yposition Zposition Zrotation Xrotation Yrotation
                JOINT rThumb1
                {
                  OFFSET -0.786 0.112 2.5817
                  CHANNELS 6 Xposition Yposition Zposition Zrotation Xrotation Yrotation
                  JOINT rThumb2
                  {
                    OFFSET -0.3601 -0.878 4.2331
                    CHANNELS 6 Xposition Yposition Zposition Zrotation Xrotation Yrotation
                    JOINT rThumb2_End
                    {
                      OFFSET -1.8127 -1.216 2.2227
                      CHANNELS 6 Xposition Yposition Zposition Zrotation Xrotation Yrotation
                      End Site
                      {
                        OFFSET -0.0181 -0.0122 0.0222
                      }
                    }
                  }
                }
                JOINT rCarpal1
                {
                  OFFSET -0.9571 1.114 1.7695
                  CHANNELS 6 Xposition Yposition Zposition Zrotation Xrotation Yrotation
                  JOINT rIndex1
                  {
                    OFFSET -4.1246 0.487 4.1451
                    CHANNELS 6 Xposition Yposition Zposition Zrotation Xrotation Yrotation
                    JOINT rIndex2
                    {
                      OFFSET -3.4052 -1.454 2.7682
                      CHANNELS 6 Xposition Yposition Zposition Zrotation Xrotation Yrotation
                      JOINT rIndex2_End
                      {
                        OFFSET -1.4531 -1.795 1.2713
                        CHANNELS 6 Xposition Yposition Zposition Zrotation Xrotation Yrotation
                        End Site
                        {
                          OFFSET -0.0145 -0.018 0.0127
                        }
                      }
                    }
                  }
                  JOINT rMid1
                  {
                    OFFSET -5.6954 0.21 2.1184
                    CHANNELS 6 Xposition Yposition Zposition Zrotation Xrotation Yrotation
                    JOINT rMid2
                    {
                      OFFSET -3.9766 -1.54 2.3863
                      CHANNELS 6 Xposition Yposition Zposition Zrotation Xrotation Yrotation
                      JOINT rMid2_End
                      {
                        OFFSET -1.4042 -1.926 1.125
                        CHANNELS 6 Xposition Yposition Zposition Zrotation Xrotation Yrotation
                        End Site
                        {
                          OFFSET -0.014 -0.0193 0.0113
                        }
                      }
                    }
                  }
                }
                JOINT rCarpal2
                {
                  OFFSET -2.0956 0.66 -0.3894
                  CHANNELS 6 Xposition Yposition Zposition Zrotation Xrotation Yrotation
                  JOINT rRing1
                  {
                    OFFSET -5.0395 -0.09 2.4971
                    CHANNELS 6 Xposition Yposition Zposition Zrotation Xrotation Yrotation
                    JOINT rRing2
                    {
                      OFFSET -3.7921 -1.552 1.4806
                      CHANNELS 6 Xposition Yposition Zposition Zrotation Xrotation Yrotation
                      JOINT rRing2_End
                      {
                        OFFSET -1.4655 -1.808 0.9609
                        CHANNELS 6 Xposition Yposition Zposition Zrotation Xrotation Yrotation
                        End Site
                        {
                          OFFSET -0.0147 -0.0181 0.0096
                        }
                      }
                    }
                  }
                  JOINT rPinky1
                  {
                    OFFSET -4.9141 -1.269 0.3592
                    CHANNELS 6 Xposition Yposition Zposition Zrotation Xrotation Yrotation
                    JOINT rPinky2
                    {
                      OFFSET -3.1477 -1.685 0.8462
                      CHANNELS 6 Xposition Yposition Zposition Zrotation Xrotation Yrotation
                      JOINT rPinky2_End
                      {
                        OFFSET -0.8055 -1.585 0.7955
                        CHANNELS 6 Xposition Yposition Zposition Zrotation Xrotation Yrotation
                        End Site
                        {
                          OFFSET -0.0081 -0.0158 0.008
                        }
                      }
                    }
                  }
                }
              }
            }
          }
        }
      }
    }
  }
  JOINT lThigh
  {
    OFFSET 8.367 -8.2066 0.5982
    CHANNELS 6 Xposition Yposition Zposition Zrotation Xrotation Yrotation
    JOINT lShin
    {
      OFFSET 2.1923 -43.463 -0.4932
      CHANNELS 6 Xposition Yposition Zposition Zrotation Xrotation Yrotation
      JOINT lFoot
      {
        OFFSET 0.7333 -45.8593 -2.6451
        CHANNELS 6 Xposition Yposition Zposition Zrotation Xrotation Yrotation
        End Site
        {
          OFFSET 2.6618 -4.2699 12.3931
        }
      }
    }
  }
  JOINT rThigh
  {
    OFFSET -8.367 -8.2066 0.5982
    CHANNELS 6 Xposition Yposition Zposition Zrotation Xrotation Yrotation
    JOINT rShin
    {
      OFFSET -2.1923 -43.463 -0.4931
      CHANNELS 6 Xposition Yposition Zposition Zrotation Xrotation Yrotation
      JOINT rFoot
      {
        OFFSET -0.7333 -45.8593 -2.6451
        CHANNELS 6 Xposition Yposition Zposition Zrotation Xrotation Yrotation
        End Site
        {
          OFFSET -2.6618 -4.2699 12.3931
        }
      }
    }
  }
}
MOTION
Frames:	4
Frame Time:	0.0333333
4.15754 37.9065 50.0787 -0.0140974 0.0111947 -135.03 7.10543e-015 -1.186 -1.5018 -1.65206 4.17668 6.30627 0 9.964 0.2134 -3.76975 8.14381 12.7797 0 13.134 -3.2573 -3.76976 8.14381 12.7797 7.10543e-015 20.686 -1.6905 -0.00229598 9.98865 16.2055 7.10543e-015 7.238 -0.1237 0.135518 -22.5949 9.05832 1.7069 20.075 5.0056 -16.5042 -78.9943 -8.46942 13.6458 -0.047 -4.849 -48.875 56.8893 8.19517 28.3255 -0.9759 2.2888 11.3441 -27.8044 -40.7541 22.1583 -0.53 10.8316 -20.157 -34.005 15.6742 0.786 0.112 2.5817 -3.97569e-016 0 -1.73937e-015 0.3601 -0.878 4.2331 3.97569e-016 0 -5.01931e-015 1.8127 -1.216 2.2227 -1.04244e-006 2.6059e-007 -1.30416e-006 0.9571 1.114 1.7695 -7.95139e-016 0 1.49089e-015 4.1246 0.487 4.1451 1.98785e-015 -1.59028e-015 -1.3418e-015 3.4052 -1.454 2.7682 3.97569e-016 -3.18055e-015 1.93815e-015 1.4531 -1.795 1.2713 -1.04244e-006 2.6059e-007 -1.30416e-006 5.6954 0.21 2.1184 1.98785e-015 -1.59028e-015 -1.3418e-015 3.9766 -1.54 2.3863 3.97569e-016 -3.18055e-015 1.93815e-015 1.4042 -1.926 1.125 -1.04244e-006 2.6059e-007 -1.30416e-006 2.0956 0.66 -0.3894 -7.95139e-016 0 1.49089e-015 5.0395 -0.09 2.4971 1.98785e-015 -1.59028e-015 -1.3418e-015 3.7921 -1.552 1.4806 3.97569e-016 -3.18055e-015 1.93815e-015 1.4655 -1.808 0.9609 -1.04244e-006 2.6059e-007 -1.30416e-006 4.9141 -1.269 0.3591 1.98785e-015 -1.59028e-015 -1.3418e-015 3.1477 -1.685 0.8462 3.97569e-016 -3.18055e-015 1.93815e-015 0.8055 -1.585 0.7955 -1.04244e-006 2.6059e-007 -1.30416e-006 -1.7069 20.075 5.0056 -29.371 -20.1487 -63.9297 -13.6458 -0.047 -4.849 36.7631 8.41528 8.3981 -28.3255 -0.9759 2.2888 7.02602 -0.544778 58.6809 -22.1583 -0.53 10.8316 28.8918 -33.2148 -7.82614 -0.786 0.112 2.5817 -5.7071e-006 -1.18369e-006 -2.32417e-006 -0.3601 -0.878 4.2331 -2.60047e-006 1.78265e-006 -5.05118e-006 -1.8127 -1.216 2.2227 1.03554e-006 9.88782e-007 -9.09003e-007 -0.9571 1.114 1.7695 6.36111e-015 -7.95139e-015 1.59028e-015 -4.1246 0.487 4.1451 -5.7071e-006 -1.18369e-006 -2.32417e-006 -3.4052 -1.454 2.7682 -2.60047e-006 1.78265e-006 -5.05118e-006 -1.4531 -1.795 1.2713 1.03554e-006 9.88782e-007 -9.09003e-007 -5.6954 0.21 2.1184 -5.7071e-006 -1.18369e-006 -2.32417e-006 -3.9766 -1.54 2.3863 -2.60047e-006 1.78265e-006 -5.05118e-006 -1.4042 -1.926 1.125 1.03554e-006 9.88782e-007 -9.09003e-007 -2.0956 0.66 -0.3894 6.36111e-015 -7.95139e-015 1.59028e-015 -5.0395 -0.09 2.4971 -5.7071e-006 -1.18369e-006 -2.32417e-006 -3.7921 -1.552 1.4806 -2.60047e-006 1.78265e-006 -5.05118e-006 -1.4655 -1.808 0.9609 1.03554e-006 9.88782e-007 -9.09003e-007 -4.9141 -1.269 0.3592 -5.7071e-006 -1.18369e-006 -2.32417e-006 -3.1477 -1.685 0.8462 -2.60047e-006 1.78265e-006 -5.05118e-006 -0.8055 -1.585 0.7955 1.03554e-006 9.88782e-007 -9.09003e-007 8.367 -8.2066 0.5982 2.01852 -21.5553 7.4804 2.1923 -43.463 -0.4932 164.126 67.9287 -158.838 0.7333 -45.8593 -2.6451 0.619513 47.0279 -15.195 -8.367 -8.2066 0.5982 -0.976683 -17.8719 -6.96739 -2.1923 -43.463 -0.4931 -159.301 68.2777 153.496 -0.7333 -45.8593 -2.6451 -5.03801 33.3675 -9.5114 
4.18814 38.2394 50.0852 -0.0140974 0.0111947 -135.03 0 -1.186 -1.5018 -1.4336 3.95188 5.81355 0 9.964 0.2134 -3.27332 7.7362 11.765 0 13.134 -3.2573 -3.27333 7.73619 11.765 0 20.686 -1.6905 -0.00216838 9.98841 15.007 0 7.238 -0.1237 0.211266 -23.6592 8.42676 1.7069 20.075 5.0056 -6.68105 -77.7063 2.49177 13.6458 -0.047 -4.849 -48.863 56.8875 8.17951 28.3255 -0.9759 2.2888 11.1449 -27.5142 -39.5142 22.1583 -0.53 10.8316 -20.1014 -33.6451 14.567 0.786 0.112 2.5817 -3.97569e-016 0 -3.32964e-015 0.3601 -0.878 4.2331 -1.88361e-006 -2.82777e-006 -5.95042e-007 1.8127 -1.216 2.2227 5.7917e-007 3.07781e-006 1.63534e-006 0.9571 1.114 1.7695 -8.96575e-032 -1.59028e-015 -3.23025e-015 4.1246 0.487 4.1451 1.19271e-015 -1.59028e-015 -3.03147e-015 3.4052 -1.454 2.7682 -1.88361e-006 -2.82777e-006 -5.95042e-007 1.4531 -1.795 1.2713 5.7917e-007 3.07781e-006 1.63534e-006 5.6954 0.21 2.1184 1.19271e-015 -1.59028e-015 -3.03147e-015 3.9766 -1.54 2.3863 -1.88361e-006 -2.82777e-006 -5.95042e-007 1.4042 -1.926 1.125 5.7917e-007 3.07781e-006 1.63534e-006 2.0956 0.66 -0.3894 -8.96575e-032 -1.59028e-015 -3.23025e-015 5.0395 -0.09 2.4971 1.19271e-015 -1.59028e-015 -3.03147e-015 3.7921 -1.552 1.4806 -1.88361e-006 -2.82777e-006 -5.95042e-007 1.4655 -1.808 0.9609 5.7917e-007 3.07781e-006 1.63534e-006 4.9141 -1.269 0.3591 1.19271e-015 -1.59028e-015 -3.03147e-015 3.1477 -1.685 0.8462 -1.88361e-006 -2.82777e-006 -5.95042e-007 0.8055 -1.585 0.7955 5.7917e-007 3.07781e-006 1.63534e-006 -1.7069 20.075 5.0056 -28.7326 -22.3265 -60.5959 -13.6458 -0.047 -4.849 36.7667 8.42468 8.41374 -28.3255 -0.9759 2.2888 7.02992 -0.556868 58.1884 -22.1583 -0.53 10.8316 27.047 -31.7184 -9.92887 -0.786 0.112 2.5817 3.53117e-006 -1.11411e-007 4.15593e-006 -0.3601 -0.878 4.2331 -2.06115e-006 -1.98775e-006 1.81798e-006 -1.8127 -1.216 2.2227 -1.03058e-006 -9.93876e-007 9.08989e-007 -0.9571 1.114 1.7695 6.36111e-015 4.77083e-015 -3.18055e-015 -4.1246 0.487 4.1451 3.53117e-006 -1.11411e-007 4.15593e-006 -3.4052 -1.454 2.7682 -2.06115e-006 -1.98775e-006 1.81798e-006 -1.4531 -1.795 1.2713 -1.03058e-006 -9.93876e-007 9.08989e-007 -5.6954 0.21 2.1184 3.53117e-006 -1.11411e-007 4.15593e-006 -3.9766 -1.54 2.3863 -2.06115e-006 -1.98775e-006 1.81798e-006 -1.4042 -1.926 1.125 -1.03058e-006 -9.93876e-007 9.08989e-007 -2.0956 0.66 -0.3894 6.36111e-015 4.77083e-015 -3.18055e-015 -5.0395 -0.09 2.4971 3.53117e-006 -1.11411e-007 4.15593e-006 -3.7921 -1.552 1.4806 -2.06115e-006 -1.98775e-006 1.81798e-006 -1.4655 -1.808 0.9609 -1.03058e-006 -9.93876e-007 9.08989e-007 -4.9141 -1.269 0.3592 3.53117e-006 -1.11411e-007 4.15593e-006 -3.1477 -1.685 0.8462 -2.06115e-006 -1.98775e-006 1.81798e-006 -0.8055 -1.585 0.7955 -1.03058e-006 -9.93876e-007 9.08989e-007 8.367 -8.2066 0.5982 2.01869 -21.527 7.42414 2.1923 -43.463 -0.4932 163.939 68.3113 -158.681 0.7333 -45.8593 -2.6451 0.651421 47.4616 -15.2106 -8.367 -8.2066 0.5982 -0.977802 -17.8436 -6.91283 -2.1923 -43.463 -0.4931 -159.029 68.6445 153.26 -0.7333 -45.8593 -2.6451 -5.10161 33.7938 -9.49051 
4.21881 38.5723 50.0918 -0.0140974 0.0111947 -135.03 0 -1.186 -1.5018 -1.21493 3.7219 5.32303 0 9.964 0.2134 -2.77994 7.31365 10.7571 0 13.134 -3.2573 -2.77994 7.31366 10.7572 -7.10543e-015 20.686 -1.6905 -0.00204073 9.9883 13.8073 0 7.238 -0.1237 0.274808 -24.7256 7.79075 1.7069 20.075 5.0056 0.967632 -76.0976 11.2823 13.6458 -0.047 -4.849 -48.851 56.8857 8.16389 28.3255 -0.9759 2.2888 10.9388 -27.2272 -38.2748 22.1583 -0.53 10.8316 -20.0375 -33.2858 13.4627 0.786 0.112 2.5817 2.54425e-006 6.04718e-006 -2.35173e-007 0.3601 -0.878 4.2331 3.97569e-016 0 -3.67752e-015 1.8127 -1.216 2.2227 3.97569e-016 -1.59028e-015 -3.57812e-015 0.9571 1.114 1.7695 1.59028e-015 0 -6.85807e-015 4.1246 0.487 4.1451 2.54425e-006 6.04718e-006 -2.35173e-007 3.4052 -1.454 2.7682 3.97569e-016 1.59028e-015 -3.57812e-015 1.4531 -1.795 1.2713 3.97569e-016 -1.59028e-015 -2.98177e-016 5.6954 0.21 2.1184 2.54425e-006 6.04718e-006 -2.35173e-007 3.9766 -1.54 2.3863 3.97569e-016 1.59028e-015 -3.57812e-015 1.4042 -1.926 1.125 3.97569e-016 -1.59028e-015 -2.98177e-016 2.0956 0.66 -0.3894 1.59028e-015 0 -6.85807e-015 5.0395 -0.09 2.4971 2.54425e-006 6.04718e-006 -2.35173e-007 3.7921 -1.552 1.4806 3.97569e-016 1.59028e-015 -3.57812e-015 1.4655 -1.808 0.9609 3.97569e-016 -1.59028e-015 -2.98177e-016 4.9141 -1.269 0.3591 2.54425e-006 6.04718e-006 -2.35173e-007 3.1477 -1.685 0.8462 3.97569e-016 1.59028e-015 -3.57812e-015 0.8055 -1.585 0.7955 3.97569e-016 -1.59028e-015 -2.98177e-016 -1.7069 20.075 5.0056 -27.9423 -24.4742 -57.1661 -13.6458 -0.047 -4.849 36.7703 8.43408 8.42938 -28.3255 -0.9759 2.2888 7.0337 -0.569038 57.6958 -22.1583 -0.53 10.8316 25.2932 -30.1641 -11.9446 -0.786 0.112 2.5817 1.02667e-006 9.98212e-007 -9.08445e-007 -0.3601 -0.878 4.2331 -1.82624e-006 -4.63199e-006 -3.0844e-006 -1.8127 -1.216 2.2227 1.02667e-006 9.98212e-007 -9.08445e-007 -0.9571 1.114 1.7695 3.18055e-015 3.18055e-015 -0 -4.1246 0.487 4.1451 1.02667e-006 9.98212e-007 -9.08445e-007 -3.4052 -1.454 2.7682 -1.82624e-006 -4.63199e-006 -3.0844e-006 -1.4531 -1.795 1.2713 1.02667e-006 9.98212e-007 -9.08445e-007 -5.6954 0.21 2.1184 1.02667e-006 9.98212e-007 -9.08445e-007 -3.9766 -1.54 2.3863 -1.82624e-006 -4.63199e-006 -3.0844e-006 -1.4042 -1.926 1.125 1.02667e-006 9.98212e-007 -9.08445e-007 -2.0956 0.66 -0.3894 3.18055e-015 3.18055e-015 -0 -5.0395 -0.09 2.4971 1.02667e-006 9.98212e-007 -9.08445e-007 -3.7921 -1.552 1.4806 -1.82624e-006 -4.63199e-006 -3.0844e-006 -1.4655 -1.808 0.9609 1.02667e-006 9.98212e-007 -9.08445e-007 -4.9141 -1.269 0.3592 1.02667e-006 9.98212e-007 -9.08445e-007 -3.1477 -1.685 0.8462 -1.82624e-006 -4.63199e-006 -3.0844e-006 -0.8055 -1.585 0.7955 1.02667e-006 9.98212e-007 -9.08445e-007 8.367 -8.2066 0.5982 2.01913 -21.4958 7.36864 2.1923 -43.463 -0.4932 163.742 68.6968 -158.513 0.7333 -45.8593 -2.6451 0.683909 47.8957 -15.2265 -8.367 -8.2066 0.5982 -0.979206 -17.8112 -6.85911 -2.1923 -43.463 -0.4931 -158.743 69.0149 153.009 -0.7333 -45.8593 -2.6451 -5.16588 34.2204 -9.46919 
4.24955 38.9052 50.0985 -0.0140974 0.0111947 -135.03 0 -1.186 -1.5018 -0.996182 3.48686 4.83494 0 9.964 0.2134 -2.29007 6.87647 9.75648 -7.10543e-015 13.134 -3.2573 -2.29007 6.87647 9.75644 7.10543e-015 20.686 -1.6905 -0.0018064 9.98821 12.6064 7.10543e-015 7.238 -0.1237 0.325784 -25.7935 7.14975 1.7069 20.075 5.0056 6.81605 -74.2685 18.2761 13.6458 -0.047 -4.849 -48.839 56.8838 8.14821 28.3255 -0.9759 2.2888 10.7261 -26.9441 -37.0358 22.1583 -0.53 10.8316 -19.9657 -32.9272 12.3615 0.786 0.112 2.5817 7.95139e-016 0 2.5842e-015 0.3601 -0.878 4.2331 7.95139e-016 1.59028e-015 -7.15625e-015 1.8127 -1.216 2.2227 7.95139e-016 1.59028e-015 -7.15625e-015 0.9571 1.114 1.7695 3.97569e-016 0 5.86415e-015 4.1246 0.487 4.1451 2.38542e-015 3.18055e-015 -3.57812e-015 3.4052 -1.454 2.7682 1.19271e-015 0 -6.65929e-015 1.4531 -1.795 1.2713 1.19271e-015 0 -1.98785e-016 5.6954 0.21 2.1184 2.38542e-015 3.18055e-015 -3.57812e-015 3.9766 -1.54 2.3863 1.19271e-015 0 -6.65929e-015 1.4042 -1.926 1.125 1.19271e-015 0 -1.98785e-016 2.0956 0.66 -0.3894 3.97569e-016 0 5.86415e-015 5.0395 -0.09 2.4971 2.38542e-015 3.18055e-015 -3.57812e-015 3.7921 -1.552 1.4806 1.19271e-015 0 -6.65929e-015 1.4655 -1.808 0.9609 1.19271e-015 0 -1.98785e-016 4.9141 -1.269 0.3591 2.38542e-015 3.18055e-015 -3.57812e-015 3.1477 -1.685 0.8462 1.19271e-015 0 -6.65929e-015 0.8055 -1.585 0.7955 1.19271e-015 0 -1.98785e-016 -1.7069 20.075 5.0056 -26.9927 -26.58 -53.6335 -13.6458 -0.047 -4.849 36.7739 8.44349 8.44504 -28.3255 -0.9759 2.2888 7.03739 -0.581195 57.2031 -22.1583 -0.53 10.8316 23.6281 -28.5576 -13.8765 -0.786 0.112 2.5817 -3.18055e-015 7.95139e-015 -4.77083e-015 -0.3601 -0.878 4.2331 -2.04759e-006 -2.00377e-006 1.81464e-006 -1.8127 -1.216 2.2227 -2.04759e-006 -2.00377e-006 1.81464e-006 -0.9571 1.114 1.7695 -3.18055e-015 -6.36111e-015 -0 -4.1246 0.487 4.1451 1.23589e-030 -1.11319e-014 6.36111e-015 -3.4052 -1.454 2.7682 -2.04759e-006 -2.00377e-006 1.81464e-006 -1.4531 -1.795 1.2713 -2.04759e-006 -2.00377e-006 1.81464e-006 -5.6954 0.21 2.1184 1.23589e-030 -1.11319e-014 6.36111e-015 -3.9766 -1.54 2.3863 -2.04759e-006 -2.00377e-006 1.81464e-006 -1.4042 -1.926 1.125 -2.04759e-006 -2.00377e-006 1.81464e-006 -2.0956 0.66 -0.3894 -3.18055e-015 -6.36111e-015 -0 -5.0395 -0.09 2.4971 1.23589e-030 -1.11319e-014 6.36111e-015 -3.7921 -1.552 1.4806 -2.04759e-006 -2.00377e-006 1.81464e-006 -1.4655 -1.808 0.9609 -2.04759e-006 -2.00377e-006 1.81464e-006 -4.9141 -1.269 0.3592 1.23589e-030 -1.11319e-014 6.36111e-015 -3.1477 -1.685 0.8462 -2.04759e-006 -2.00377e-006 1.81464e-006 -0.8055 -1.585 0.7955 -2.04759e-006 -2.00377e-006 1.81464e-006 8.367 -8.2066 0.5982 2.01936 -21.4672 7.31356 2.1923 -43.463 -0.4932 163.54 69.0798 -158.341 0.7333 -45.8593 -2.6451 0.716998 48.3302 -15.2426 -8.367 -8.2066 0.5982 -0.980379 -17.7829 -6.80566 -2.1923 -43.463 -0.4931 -158.451 69.3813 152.753 -0.7333 -45.8593 -2.6451 -5.23082 34.6473 -9.44736 
